<?xml version="1.0" encoding="UTF-8"?>
<svg xmlns="http://www.w3.org/2000/svg" width="1000" height="580" viewBox="0 0 1000 580">
<defs>
  <linearGradient id="linearGradient1" x1="0%" y1="0%" x2="100%" y2="100%"><stop offset="0%" stop-color="#010409"/><stop offset="100%" stop-color="#0D1117"/></linearGradient>
  <pattern id="grid1" width="30" height="30" patternUnits="userSpaceOnUse"><rect width="30" height="30" fill="url(#linearGradient1)"/><path d="M 30 0 L 0 0 0 30" fill="none" stroke="#1F2937" stroke-width="1"/></pattern>
  <filter id="shadow1" x="-50%" y="-50%" width="200%" height="200%"><feDropShadow dx="5" dy="5" stdDeviation="8" flood-color="#020617"/></filter>
  <linearGradient id="linearGradient2" x1="0%" y1="0%" x2="0%" y2="100%"><stop offset="0%" stop-color="#0284C7"/><stop offset="100%" stop-color="#0369A1"/></linearGradient>
  <linearGradient id="linearGradient3" x1="0%" y1="0%" x2="0%" y2="100%"><stop offset="0%" stop-color="#0D1117"/><stop offset="100%" stop-color="#161B22"/></linearGradient>
  <linearGradient id="linearGradient4" x1="0%" y1="0%" x2="0%" y2="100%"><stop offset="0%" stop-color="#064E3B"/><stop offset="100%" stop-color="#022C22"/></linearGradient>
  <linearGradient id="linearGradient5" x1="0%" y1="0%" x2="100%" y2="0%"><stop offset="0%" stop-color="#166534"/><stop offset="100%" stop-color="#14532D"/></linearGradient>
  <linearGradient id="linearGradient6" x1="0%" y1="0%" x2="100%" y2="0%"><stop offset="0%" stop-color="#5B21B6"/><stop offset="100%" stop-color="#4C1D95"/></linearGradient>
  <linearGradient id="linearGradient7" x1="0%" y1="0%" x2="100%" y2="0%"><stop offset="0%" stop-color="#9D174D"/><stop offset="100%" stop-color="#831843"/></linearGradient>
  <marker id="arrow1" viewBox="0 0 10 10" refX="9" refY="5" markerWidth="8" markerHeight="8" orient="auto-start-reverse"><path d="M 0 0 L 10 5 L 0 10 z" fill="#38BDF8"/></marker>
  <marker id="arrow2" viewBox="0 0 10 10" refX="9" refY="5" markerWidth="8" markerHeight="8" orient="auto-start-reverse"><path d="M 0 0 L 10 5 L 0 10 z" fill="#22C55E"/></marker>
  <marker id="arrow3" viewBox="0 0 10 10" refX="9" refY="5" markerWidth="8" markerHeight="8" orient="auto-start-reverse"><path d="M 0 0 L 10 5 L 0 10 z" fill="#A78BFA"/></marker>
  <marker id="arrow4" viewBox="0 0 10 10" refX="9" refY="5" markerWidth="8" markerHeight="8" orient="auto-start-reverse"><path d="M 0 0 L 10 5 L 0 10 z" fill="#EC4899"/></marker>
  <marker id="arrow5" viewBox="0 0 10 10" refX="9" refY="5" markerWidth="8" markerHeight="8" orient="auto-start-reverse"><path d="M 0 0 L 10 5 L 0 10 z" fill="#F59E0B"/></marker>
</defs>
  <rect x="0" y="0" width="1000" height="580" fill="url(#linearGradient1)"/>
  <rect x="0" y="0" width="1000" height="580" fill="url(#grid1)" opacity="0.25"/>
  <text x="500" y="45" font-family="'Segoe UI', sans-serif" font-size="24" font-weight="bold" text-anchor="middle" dominant-baseline="middle" fill="#F8FAFC">🚀 HIGH-PRECISION ZERO-COPY MEMORY PIPELINE</text>
  <text x="500" y="75" font-family="'Segoe UI', sans-serif" font-size="14" text-anchor="middle" dominant-baseline="middle" fill="#94A3B8">Direct hardware memory allocation and pointer-sharing to bypass C/C++/Ring copy overhead</text>
  <rect x="50" y="120" width="220" height="360" rx="10" ry="10" fill="url(#linearGradient2)" stroke="#0EA5E9" stroke-width="1.50" filter="url(#shadow1)"/>
  <text x="160" y="150" font-family="'Segoe UI', sans-serif" font-size="15" font-weight="bold" text-anchor="middle" dominant-baseline="middle" fill="#F0F9FF">Ring Interpreter (CPU)</text>
  <text x="160" y="172" font-family="'Segoe UI', sans-serif" font-size="10" text-anchor="middle" dominant-baseline="middle" fill="#BAE6FD">Orchestrates allocation and binds</text>
  <rect x="65" y="205" width="190" height="52" rx="6" ry="6" fill="url(#linearGradient3)" stroke="#0284C7" stroke-width="1"/>
  <text x="160" y="225" font-family="'Segoe UI', sans-serif" font-size="11" font-weight="bold" text-anchor="middle" dominant-baseline="middle" fill="#38BDF8">1. W = new Tensor(N, M)</text>
  <text x="160" y="243" font-family="'Segoe UI', sans-serif" font-size="9" text-anchor="middle" dominant-baseline="middle" fill="#94A3B8">Allocates double* array in C</text>
  <rect x="65" y="275" width="190" height="52" rx="6" ry="6" fill="url(#linearGradient3)" stroke="#0284C7" stroke-width="1"/>
  <text x="160" y="295" font-family="'Segoe UI', sans-serif" font-size="11" font-weight="bold" text-anchor="middle" dominant-baseline="middle" fill="#38BDF8">2. ptr = W.data_ptr()</text>
  <text x="160" y="313" font-family="'Segoe UI', sans-serif" font-size="9" text-anchor="middle" dominant-baseline="middle" fill="#94A3B8">Extracts physical memory address</text>
  <rect x="65" y="345" width="190" height="52" rx="6" ry="6" fill="url(#linearGradient3)" stroke="#0284C7" stroke-width="1"/>
  <text x="160" y="365" font-family="'Segoe UI', sans-serif" font-size="11" font-weight="bold" text-anchor="middle" dominant-baseline="middle" fill="#38BDF8">3. quantum_bind(nqs, ptr)</text>
  <text x="160" y="383" font-family="'Segoe UI', sans-serif" font-size="9" text-anchor="middle" dominant-baseline="middle" fill="#94A3B8">Maps exact address to C struct</text>
  <rect x="65" y="415" width="190" height="48" rx="6" ry="6" fill="url(#linearGradient3)" stroke="#0284C7" stroke-width="1"/>
  <text x="160" y="432" font-family="'Segoe UI', sans-serif" font-size="11" font-weight="bold" text-anchor="middle" dominant-baseline="middle" fill="#38BDF8">4. Train (In-place)</text>
  <text x="160" y="448" font-family="'Segoe UI', sans-serif" font-size="9" text-anchor="middle" dominant-baseline="middle" fill="#94A3B8">No copy during iterations</text>
  <rect x="350" y="180" width="300" height="240" rx="8" ry="8" fill="url(#linearGradient4)" stroke="#059669" stroke-width="2" filter="url(#shadow1)"/>
  <line x1="350" y1="210" x2="400" y2="210" fill="#000000" stroke="#10B981" stroke-width="1.50" opacity="0.50"/>
  <line x1="350" y1="240" x2="400" y2="240" fill="#000000" stroke="#10B981" stroke-width="1.50" opacity="0.50"/>
  <line x1="350" y1="360" x2="400" y2="360" fill="#000000" stroke="#10B981" stroke-width="1.50" opacity="0.50"/>
  <line x1="350" y1="390" x2="400" y2="390" fill="#000000" stroke="#10B981" stroke-width="1.50" opacity="0.50"/>
  <line x1="600" y1="210" x2="650" y2="210" fill="#000000" stroke="#10B981" stroke-width="1.50" opacity="0.50"/>
  <line x1="600" y1="390" x2="650" y2="390" fill="#000000" stroke="#10B981" stroke-width="1.50" opacity="0.50"/>
  <rect x="344" y="190" width="6" height="8" fill="#F59E0B"/>
  <rect x="650" y="190" width="6" height="8" fill="#F59E0B"/>
  <rect x="344" y="205" width="6" height="8" fill="#F59E0B"/>
  <rect x="650" y="205" width="6" height="8" fill="#F59E0B"/>
  <rect x="344" y="220" width="6" height="8" fill="#F59E0B"/>
  <rect x="650" y="220" width="6" height="8" fill="#F59E0B"/>
  <rect x="344" y="235" width="6" height="8" fill="#F59E0B"/>
  <rect x="650" y="235" width="6" height="8" fill="#F59E0B"/>
  <rect x="344" y="250" width="6" height="8" fill="#F59E0B"/>
  <rect x="650" y="250" width="6" height="8" fill="#F59E0B"/>
  <rect x="344" y="265" width="6" height="8" fill="#F59E0B"/>
  <rect x="650" y="265" width="6" height="8" fill="#F59E0B"/>
  <rect x="344" y="280" width="6" height="8" fill="#F59E0B"/>
  <rect x="650" y="280" width="6" height="8" fill="#F59E0B"/>
  <rect x="344" y="295" width="6" height="8" fill="#F59E0B"/>
  <rect x="650" y="295" width="6" height="8" fill="#F59E0B"/>
  <rect x="344" y="310" width="6" height="8" fill="#F59E0B"/>
  <rect x="650" y="310" width="6" height="8" fill="#F59E0B"/>
  <rect x="344" y="325" width="6" height="8" fill="#F59E0B"/>
  <rect x="650" y="325" width="6" height="8" fill="#F59E0B"/>
  <rect x="344" y="340" width="6" height="8" fill="#F59E0B"/>
  <rect x="650" y="340" width="6" height="8" fill="#F59E0B"/>
  <rect x="344" y="355" width="6" height="8" fill="#F59E0B"/>
  <rect x="650" y="355" width="6" height="8" fill="#F59E0B"/>
  <rect x="344" y="370" width="6" height="8" fill="#F59E0B"/>
  <rect x="650" y="370" width="6" height="8" fill="#F59E0B"/>
  <rect x="344" y="385" width="6" height="8" fill="#F59E0B"/>
  <rect x="650" y="385" width="6" height="8" fill="#F59E0B"/>
  <rect x="344" y="400" width="6" height="8" fill="#F59E0B"/>
  <rect x="650" y="400" width="6" height="8" fill="#F59E0B"/>
  <rect x="420" y="200" width="160" height="35" rx="4" ry="4" fill="#111827" stroke="#475569" stroke-width="1"/>
  <text x="500" y="218" font-family="Courier New" font-size="11" font-weight="bold" text-anchor="middle" dominant-baseline="middle" fill="#F3F4F6">PHYSICAL RAM MODULE</text>
  <rect x="370" y="255" width="260" height="140" rx="6" ry="6" fill="#1E293B" stroke="#10B981" stroke-width="1.50"/>
  <text x="500" y="275" font-family="'Segoe UI', sans-serif" font-size="11" font-weight="bold" text-anchor="middle" dominant-baseline="middle" fill="#34D399">SHARED DOUBLE POINTER ARRAYS</text>
  <rect x="385" y="295" width="230" height="85" rx="4" ry="4" fill="#0F172A"/>
  <text x="500" y="315" font-family="Courier New" font-size="11" font-weight="bold" text-anchor="middle" dominant-baseline="middle" fill="#F59E0B">double* W_real ──► [0x7FFE6B30]</text>
  <text x="500" y="335" font-family="Courier New" font-size="11" font-weight="bold" text-anchor="middle" dominant-baseline="middle" fill="#F59E0B">double* W_imag ──► [0x7FFE6B68]</text>
  <text x="500" y="355" font-family="Courier New" font-size="11" font-weight="bold" text-anchor="middle" dominant-baseline="middle" fill="#F59E0B">double* a_real ──► [0x7FFE6C00]</text>
  <rect x="720" y="120" width="230" height="85" rx="8" ry="8" fill="url(#linearGradient5)" stroke="#22C55E" stroke-width="1.50" filter="url(#shadow1)"/>
  <text x="835" y="148" font-family="'Segoe UI', sans-serif" font-size="14" font-weight="bold" text-anchor="middle" dominant-baseline="middle" fill="#F0FDF4">RingTensor Engine</text>
  <text x="835" y="170" font-family="Courier New" font-size="10" text-anchor="middle" dominant-baseline="middle" fill="#A7F3D0">Directly updates [0x7FFE6B30]</text>
  <text x="835" y="185" font-family="'Segoe UI', sans-serif" font-size="9" text-anchor="middle" dominant-baseline="middle" fill="#BBF7D0">In-Place Adam Optimizer Loop</text>
  <rect x="720" y="245" width="230" height="85" rx="8" ry="8" fill="url(#linearGradient6)" stroke="#A78BFA" stroke-width="1.50" filter="url(#shadow1)"/>
  <text x="835" y="273" font-family="'Segoe UI', sans-serif" font-size="14" font-weight="bold" text-anchor="middle" dominant-baseline="middle" fill="#F5F3FF">RingQuantum Engine</text>
  <text x="835" y="295" font-family="Courier New" font-size="10" text-anchor="middle" dominant-baseline="middle" fill="#DDD6FE">Binds: nqs-&gt;W_real = pointer</text>
  <text x="835" y="310" font-family="'Segoe UI', sans-serif" font-size="9" text-anchor="middle" dominant-baseline="middle" fill="#E9D5FF">Runs MCMC / Causal Attn loops</text>
  <rect x="720" y="370" width="230" height="85" rx="8" ry="8" fill="url(#linearGradient7)" stroke="#F472B6" stroke-width="1.50" filter="url(#shadow1)"/>
  <text x="835" y="398" font-family="'Segoe UI', sans-serif" font-size="14" font-weight="bold" text-anchor="middle" dominant-baseline="middle" fill="#FDF2F8">AlQalam Vector Engine</text>
  <text x="835" y="420" font-family="Courier New" font-size="10" text-anchor="middle" dominant-baseline="middle" fill="#FBCFE8">Reads directly via flowFromPtr</text>
  <text x="835" y="435" font-family="'Segoe UI', sans-serif" font-size="9" text-anchor="middle" dominant-baseline="middle" fill="#F9A8D4">Solves TDVP CG systems in C++</text>
  <line x1="270" y1="231" x2="340" y2="231" fill="#000000" stroke="#F59E0B" stroke-width="2" marker-end="url(#arrow5)"/>
  <text x="272" y="222" font-family="'Segoe UI', sans-serif" font-size="8.50" fill="#F59E0B">Allocates RAM Module</text>
  <line x1="270" y1="365" x2="340" y2="365" fill="#000000" stroke="#38BDF8" stroke-width="2" marker-end="url(#arrow1)"/>
  <text x="272" y="356" font-family="'Segoe UI', sans-serif" font-size="8.50" fill="#38BDF8">Retrieves pointer &amp; binds</text>
  <line x1="656" y1="250" x2="720" y2="185" fill="#000000" stroke="#22C55E" stroke-width="2" stroke-dasharray="3,3" marker-end="url(#arrow2)"/>
  <line x1="656" y1="300" x2="720" y2="300" fill="#000000" stroke="#A78BFA" stroke-width="2" marker-end="url(#arrow3)" marker-start="url(#arrow5)"/>
  <text x="658" y="292" font-family="'Segoe UI', sans-serif" font-size="8" fill="#A78BFA">Zero-Copy Read/Write</text>
  <line x1="656" y1="350" x2="720" y2="410" fill="#000000" stroke="#EC4899" stroke-width="2" stroke-dasharray="3,3" marker-end="url(#arrow4)"/>
  <rect x="50" y="495" width="900" height="50" rx="6" ry="6" fill="#1E293B" stroke="#475569" stroke-width="1"/>
  <text x="500" y="524" font-family="'Segoe UI', sans-serif" font-size="11" font-weight="bold" text-anchor="middle" dominant-baseline="middle" fill="#38BDF8">Zero PCIe Bus copies / Zero Memory allocations in iterations. Intel Core thread cache performance optimization.</text>
</svg>